<svg version="1.1" id="Layer_1" xmlns="http://www.w3.org/2000/svg" xmlns:xlink="http://www.w3.org/1999/xlink" x="0px" y="0px"
	 width="100%" viewBox="0 0 411 220" enable-background="new 0 0 411 220" xml:space="preserve">
<path fill="#000000" opacity="1.000000" stroke="none" 
	d="
M298.000000,221.000000 
	C198.666702,221.000000 99.833389,221.000000 1.000066,221.000000 
	C1.000044,147.666718 1.000044,74.333435 1.000022,1.000116 
	C137.999908,1.000077 274.999817,1.000077 411.999817,1.000039 
	C411.999878,74.333221 411.999878,147.666443 411.999939,220.999832 
	C374.166656,221.000000 336.333344,221.000000 298.000000,221.000000 
M223.966049,186.038834 
	C223.977448,183.890793 224.037933,181.741684 223.990524,179.594940 
	C223.874649,174.346939 223.264023,168.975708 228.825958,164.984955 
	C235.311417,162.719788 240.829224,166.446365 240.980042,173.292343 
	C241.089966,178.280792 241.018204,183.273117 241.064285,188.263367 
	C241.068558,188.723770 241.340134,189.181702 241.587219,189.950867 
	C242.965866,189.858002 244.340363,189.765427 245.999573,189.653656 
	C245.999573,183.803329 246.010315,178.332855 245.997238,172.862442 
	C245.973099,162.773239 237.456329,156.850647 227.837128,160.008499 
	C225.939926,160.631302 223.704788,160.224655 220.973526,160.116074 
	C220.326538,160.951248 219.131927,161.776978 219.117325,162.623093 
	C218.971817,171.051147 218.954056,179.484070 219.144196,187.910110 
	C219.159149,188.572769 221.004669,189.194122 222.738342,189.928696 
	C223.103607,188.939423 223.468872,187.950150 223.966049,186.038834 
M238.734039,54.634766 
	C236.665878,54.369614 234.560226,54.270042 232.535889,53.811424 
	C222.310257,51.494781 215.456818,56.379086 214.036026,67.816528 
	C214.302368,76.320068 218.842438,81.627861 227.838043,82.787926 
	C232.889771,83.439392 241.430069,80.473396 242.854309,71.995758 
	C244.262009,63.616600 243.954514,54.949287 244.414200,46.124611 
	C236.711456,45.851162 239.639725,50.900566 238.734039,54.634766 
M164.734741,197.240082 
	C176.810791,200.586273 189.284073,193.747910 193.329681,182.062302 
	C197.565201,169.828018 193.414948,159.533401 182.331665,152.841751 
	C168.565552,144.530334 145.858200,153.068329 146.415298,174.235352 
	C146.575195,174.840363 146.735107,175.445358 146.973160,176.788666 
	C147.037766,177.527206 147.102386,178.265732 147.094559,179.746201 
	C149.492310,188.643402 154.909439,194.553848 164.734741,197.240082 
M76.173126,182.448151 
	C81.430862,170.974274 75.987389,155.289841 63.019169,150.439209 
	C53.415691,146.847122 39.835415,150.263321 34.362461,158.284729 
	C27.864008,167.809158 28.702829,181.680206 36.061523,189.586243 
	C47.339252,201.702805 69.794815,198.854721 76.173126,182.448151 
M194.052032,62.344296 
	C196.394821,53.460194 194.304245,45.983498 187.876160,39.221893 
	C180.597443,31.565529 167.413406,29.755190 158.305740,35.355591 
	C148.646271,41.295303 144.388489,52.923851 147.864990,63.804863 
	C150.767715,72.890038 159.225189,79.790138 167.713486,79.998444 
	C182.603760,80.363876 189.335419,76.053352 194.052032,62.344296 
M47.152004,32.090248 
	C29.864698,37.624374 26.875517,50.588520 29.642458,62.933399 
	C31.804007,72.577271 39.149143,78.140846 48.485840,79.758553 
	C58.538990,81.500397 67.042099,77.743118 72.953804,69.099350 
	C80.365898,58.261795 77.321754,43.380230 66.544106,35.961094 
	C60.807941,32.012424 54.543980,31.692694 47.152004,32.090248 
M156.182571,129.635178 
	C157.567154,130.134964 158.938507,130.675720 160.338486,131.127808 
	C168.698074,133.827332 177.190704,130.355698 181.089111,122.665764 
	C184.955658,115.038673 182.786591,105.538834 176.048233,100.588356 
	C169.241745,95.587830 158.998047,96.395439 153.106277,102.397087 
	C145.470215,110.175552 146.402954,119.996422 156.182571,129.635178 
M51.960682,98.069351 
	C50.797962,98.674156 49.633877,99.276337 48.472752,99.884193 
	C42.346745,103.091141 40.014248,108.897499 40.229267,115.034286 
	C40.474922,122.045395 44.002708,128.006363 50.928577,130.861526 
	C57.677452,133.643723 66.986389,131.379120 70.841110,126.445023 
	C75.630196,120.314926 76.574379,110.779755 72.613365,105.262589 
	C69.330391,100.689842 61.877075,95.108284 51.960682,98.069351 
M123.266411,48.067848 
	C118.063377,44.142906 111.951042,43.981339 106.260468,45.521103 
	C97.302780,47.944885 92.778862,58.334431 95.833633,67.535110 
	C98.820030,76.529877 107.846146,80.928329 117.098900,78.499397 
	C128.967300,75.383835 134.289749,59.270603 123.266411,48.067848 
M96.860809,175.312897 
	C97.075211,175.566360 97.323509,175.798416 97.499077,176.076401 
	C102.500900,183.996094 113.079620,186.622330 121.167953,181.945679 
	C128.503235,177.704453 131.525009,165.587311 127.421928,157.925400 
	C122.589622,148.901794 110.432922,148.351364 104.132454,151.444519 
	C95.733261,155.567993 93.160027,163.567505 96.860809,175.312897 
M255.334015,75.816437 
	C256.790314,77.344597 258.246613,78.872749 259.997650,80.710167 
	C258.405426,80.944466 257.341339,81.101044 256.338043,81.248688 
	C255.168427,87.746964 259.874634,93.318779 266.991791,94.929344 
	C272.912476,96.269150 280.923950,92.348396 281.777405,86.576241 
	C282.902191,78.968529 283.548309,70.994476 282.508026,63.438427 
	C281.259857,54.372368 272.115906,50.047802 263.409424,53.010914 
	C254.397537,56.077965 250.984390,65.075020 255.334015,75.816437 
M88.009171,153.994583 
	C90.419441,152.414291 93.146492,151.158691 95.171364,149.183334 
	C98.915871,145.530380 98.609306,140.967178 96.752281,136.487122 
	C94.896088,132.009064 91.223152,129.551697 86.578918,129.084442 
	C81.808968,128.604538 77.552559,130.111755 74.911118,134.494217 
	C69.739807,143.074005 73.863235,155.547699 88.009171,153.994583 
M144.819290,130.333817 
	C144.014404,130.165085 143.189575,130.060410 142.407867,129.817184 
	C137.501083,128.290390 131.806488,129.861206 129.208847,133.489151 
	C126.526230,137.235794 126.087852,145.536926 128.396744,148.867432 
	C131.440140,153.257431 137.269119,155.511795 142.933334,153.869751 
	C148.165405,152.352982 150.649231,148.000092 151.886505,143.056076 
	C152.880814,139.082947 149.737320,133.563049 144.819290,130.333817 
M74.871811,80.676315 
	C74.247932,83.478348 73.254066,86.258308 73.085289,89.087494 
	C72.819786,93.537842 76.397377,98.432785 80.317963,99.768623 
	C85.298973,101.465782 92.428658,99.531464 95.044907,95.773132 
	C99.353401,89.583832 98.919708,82.513420 93.627274,78.215004 
	C88.773834,74.273117 81.892265,73.157295 74.871811,80.676315 
M250.406830,183.928986 
	C255.140091,189.628342 261.291962,191.387711 267.975739,188.772888 
	C271.819672,187.269058 275.868561,184.745346 275.880768,177.688065 
	C272.752319,179.536148 270.260895,180.499039 268.448822,182.189957 
	C265.208710,185.213379 261.816559,185.268478 258.162598,183.596176 
	C255.020538,182.158173 252.533508,180.100906 252.802277,175.694397 
	C261.003754,175.694397 268.929688,175.694397 276.819153,175.694397 
	C277.219238,167.685852 273.969025,162.161469 267.852234,160.030334 
	C261.033417,157.654633 255.263458,159.179138 250.352219,165.233749 
	C246.801773,169.610779 245.003235,175.619995 250.406830,183.928986 
M147.959839,78.491638 
	C144.173965,76.355324 140.658691,74.456635 135.746262,75.780914 
	C130.557663,77.179634 127.860352,80.220100 127.086708,84.980667 
	C125.941277,92.029015 128.199600,96.557144 133.397095,99.133018 
	C137.614029,101.222931 144.243973,100.241211 147.532104,96.936867 
	C152.105301,92.341110 153.785522,87.163727 147.959839,78.491638 
M235.868423,127.351433 
	C227.049805,132.307236 221.018951,128.874527 221.000961,118.887146 
	C220.994659,115.388496 221.078491,111.887169 220.966782,108.391998 
	C220.874191,105.494797 219.510559,103.856903 216.010101,104.325806 
	C216.010101,110.652412 215.761383,116.813904 216.091873,122.944176 
	C216.338852,127.525436 222.044464,135.238586 228.496048,134.035553 
	C231.895050,133.401733 235.362640,133.135590 240.578186,132.479721 
	C237.425064,136.202103 235.644104,140.128510 232.709869,141.406067 
	C225.611694,144.496582 222.687332,136.937607 217.527817,133.641968 
	C217.527817,135.753433 217.112061,137.530548 217.604797,139.003845 
	C219.161697,143.659134 225.584793,147.422287 230.687149,146.992615 
	C236.837830,146.474670 242.584946,142.163757 242.825531,136.580429 
	C243.288300,125.840912 242.960358,115.067329 242.960358,104.307869 
	C242.330414,104.130394 241.700470,103.952919 241.070541,103.775452 
	C240.380554,105.503754 239.290604,107.183487 239.073730,108.969246 
	C238.353775,114.897621 240.692642,121.315758 235.868423,127.351433 
M321.967712,187.544373 
	C322.975464,185.723785 324.772034,183.937485 324.852936,182.076614 
	C325.183777,174.463882 324.990967,166.828415 324.990967,159.201309 
	C324.433960,158.989212 323.876953,158.777100 323.319946,158.565002 
	C322.546936,160.057922 321.211792,161.510666 321.101715,163.050964 
	C320.700806,168.660507 320.969269,174.322922 320.460693,179.917725 
	C320.180511,183.000076 318.462433,185.814575 314.602966,184.912735 
	C311.390106,184.162003 309.828949,181.885818 309.955139,178.364197 
	C310.132690,173.409180 310.000061,168.443069 310.000061,163.252075 
	C308.206207,163.252075 306.821136,163.252075 304.999573,163.252075 
	C304.999573,168.572189 304.757904,173.712112 305.076752,178.817017 
	C305.327301,182.827942 303.650909,184.926407 299.900085,184.900955 
	C296.285950,184.876434 294.939117,182.379135 294.983948,178.931808 
	C295.048920,173.940033 294.979248,168.946655 295.006714,163.954178 
	C295.024017,160.801605 293.832825,158.932419 290.000000,159.209610 
	C290.000000,165.787338 289.975769,172.260422 290.005829,178.733246 
	C290.048035,187.814148 297.047150,192.179001 305.244568,188.401199 
	C306.474274,187.834503 308.451294,187.520523 309.477509,188.121994 
	C313.560516,190.515121 317.419281,190.504501 321.967712,187.544373 
M320.503998,82.106735 
	C324.178223,81.650848 327.852448,81.194954 331.997559,80.680634 
	C331.997559,76.575790 332.146057,71.585136 331.959351,66.607063 
	C331.734253,60.605526 327.236206,54.922981 321.537231,53.007545 
	C316.450104,51.297749 308.896851,53.090553 305.766907,56.750751 
	C301.441711,61.808693 300.696686,69.255623 303.885895,75.552956 
	C306.404175,80.525414 312.966522,83.432961 320.503998,82.106735 
M341.570862,134.974762 
	C344.050354,135.368423 345.180115,134.587082 345.055634,131.808182 
	C344.847046,127.152191 345.005859,122.480011 344.998413,117.814659 
	C344.988220,111.409897 342.310394,106.780502 336.229431,105.307465 
	C332.112671,104.310219 327.558899,105.117157 323.108215,105.117157 
	C322.458557,93.159157 322.458557,93.159157 318.311768,93.542671 
	C318.311768,107.295898 318.311768,121.049126 318.311768,135.095352 
	C320.044983,134.921432 321.434113,134.782028 323.000153,134.624893 
	C323.000153,129.264587 322.985382,124.279243 323.004028,119.294029 
	C323.025635,113.523026 326.639862,109.094360 331.368469,109.003517 
	C336.252563,108.909676 339.897461,113.448700 340.023102,119.530487 
	C340.128601,124.636322 340.436829,129.737961 341.570862,134.974762 
M344.052704,159.053864 
	C332.882996,158.562454 325.983521,165.523651 326.910095,176.562485 
	C327.570343,184.428909 337.069153,191.813431 344.666809,189.712387 
	C351.593933,187.796753 356.789062,181.949005 356.999542,175.830414 
	C357.280884,167.652267 353.314331,162.279251 344.052704,159.053864 
M384.479553,164.038925 
	C382.163666,166.839417 379.847778,169.639893 376.772552,173.358627 
	C376.772552,165.465363 376.772552,158.856506 376.772552,151.957886 
	C375.011536,152.092453 373.623047,152.198547 372.198669,152.307373 
	C372.198669,164.957825 372.198669,177.227386 372.198669,189.579437 
	C373.900574,189.579437 375.393951,189.579437 376.931824,189.579437 
	C377.215851,184.417679 375.609528,178.950638 381.347015,176.546951 
	C387.314423,179.689392 385.219177,191.322372 396.494568,189.751083 
	C394.401367,186.336456 392.583374,183.328247 390.722382,180.346878 
	C388.862762,177.367722 386.960205,174.415390 385.272797,171.760208 
	C388.396576,167.703842 391.200592,164.062714 394.153931,160.227722 
	C388.884003,157.195206 387.518188,161.716812 384.479553,164.038925 
M264.248444,104.986526 
	C258.449982,102.947685 253.442963,104.392868 249.041489,108.457672 
	C243.857819,113.244850 243.562057,118.923019 245.660355,125.272118 
	C248.863220,134.963516 261.410706,137.575333 268.915649,131.614136 
	C276.835114,125.323708 276.155121,109.350723 264.248444,104.986526 
M281.024170,123.726639 
	C281.015625,119.067459 280.975189,114.408035 281.009583,109.749176 
	C281.033447,106.512199 279.672150,104.575653 276.000214,104.124222 
	C276.000214,110.171173 275.978424,115.983612 276.005737,121.795830 
	C276.039581,129.001617 281.168365,134.380615 288.528717,134.980865 
	C294.418915,135.461212 302.301758,129.815689 302.825684,123.872879 
	C303.400238,117.355545 302.956543,110.748436 302.956543,104.180450 
	C302.354004,103.918747 301.751465,103.657043 301.148926,103.395340 
	C300.099792,105.196785 298.370453,106.916916 298.143341,108.816628 
	C297.672638,112.754097 298.226318,116.805351 297.904083,120.772888 
	C297.742737,122.759430 297.015900,125.009102 295.795776,126.544556 
	C291.583008,131.846085 287.485504,131.194458 281.024170,123.726639 
M83.000664,113.772751 
	C83.028450,120.386833 87.811165,124.942505 93.098396,123.454224 
	C97.579643,122.192818 100.052841,119.381508 99.982285,114.649361 
	C99.916656,110.246819 97.005699,107.034401 91.898132,106.535934 
	C87.376358,106.094635 84.441879,108.690735 83.000664,113.772751 
M116.844948,142.699570 
	C121.674957,137.737396 122.007431,133.109482 117.806572,129.314301 
	C113.889145,125.775185 108.714951,126.141106 105.259094,130.262894 
	C102.671288,133.349396 102.548149,136.831543 104.657875,140.042740 
	C107.465530,144.316299 111.530853,145.213760 116.844948,142.699570 
M109.990494,86.036499 
	C103.395233,89.488792 101.384087,95.560944 105.463516,99.946175 
	C108.302658,102.998169 111.622032,104.102455 115.636047,102.115440 
	C119.254555,100.324196 121.179657,97.352577 120.710808,93.497253 
	C120.121323,88.649963 116.488182,86.190201 109.990494,86.036499 
M137.252197,107.813423 
	C135.523209,107.542313 133.791916,107.285141 132.065735,106.997162 
	C128.580383,106.415695 125.915192,108.113701 125.151985,111.119896 
	C124.460732,113.842697 124.377426,117.367050 125.565918,119.779312 
	C127.749611,124.211510 133.863358,124.887367 137.638290,121.845978 
	C142.332779,118.063721 142.411407,113.701866 137.252197,107.813423 
M310.004608,123.926018 
	C310.004608,118.996185 310.004608,114.066345 310.004608,109.201973 
	C312.308502,109.031090 313.934326,108.910507 315.750549,108.775795 
	C315.750549,107.179474 315.750549,105.785301 315.750549,104.228027 
	C313.773712,104.056511 312.017365,103.904129 310.114441,103.739029 
	C310.052795,100.346588 310.091919,96.941780 305.003815,98.483955 
	C305.003815,107.289940 304.777985,115.936256 305.071869,124.564873 
	C305.328918,132.111069 308.996063,135.318756 316.474518,134.467117 
	C315.835663,132.898102 315.483032,131.290375 314.607056,130.053207 
	C313.271912,128.167633 311.574677,126.538483 310.004608,123.926018 
M282.927490,154.872818 
	C281.569763,154.094360 280.212036,153.315903 278.017822,152.057846 
	C278.017822,162.342773 277.642517,171.337982 278.134979,180.285416 
	C278.538635,187.619461 282.523560,190.575211 290.212860,189.106049 
	C288.641571,187.289612 287.502716,186.051880 286.455109,184.741226 
	C285.265137,183.252396 283.298828,181.766953 283.170380,180.160095 
	C282.750397,174.907013 283.012817,169.599380 283.012817,164.296982 
	C285.280029,164.052643 287.033905,163.863617 289.054810,163.645828 
	C288.914062,161.960999 288.796967,160.559143 288.695953,159.350098 
	C286.301697,158.397430 282.343903,160.621918 282.927490,154.872818 
M332.999725,71.192505 
	C333.609955,80.200645 336.731018,83.497223 345.121246,82.266266 
	C343.657837,80.425133 342.488556,79.194870 341.604889,77.785530 
	C340.296906,75.699463 338.280090,73.534088 338.163879,71.318626 
	C337.746155,63.354652 337.921753,55.354370 338.035645,47.370136 
	C338.084259,43.963123 337.026978,42.299000 332.999695,43.419979 
	C332.999695,52.336300 332.999695,61.294743 332.999725,71.192505 
M293.000000,57.526703 
	C293.000000,63.016251 292.972473,68.505974 293.007233,73.995300 
	C293.047333,80.329300 295.706787,82.742729 302.743744,82.696182 
	C302.897583,80.567749 304.035919,78.524147 300.439575,77.501595 
	C298.944061,77.076378 297.337158,74.288780 297.175812,72.452866 
	C296.730804,67.388130 297.021973,62.258709 297.021973,57.179985 
	C299.270813,57.033348 300.897003,56.927307 302.578339,56.817673 
	C302.578339,55.100384 302.578339,53.605885 302.578339,52.146519 
	C300.544006,52.007111 298.922363,51.895985 298.285492,51.852341 
	C296.831604,49.295414 295.762970,47.416073 294.694366,45.536736 
	C294.129578,45.759678 293.564789,45.982620 293.000000,46.205563 
	C293.000000,49.649906 293.000000,53.094246 293.000000,57.526703 
M360.975189,162.544220 
	C355.457428,171.076111 359.150238,180.492020 357.802155,189.734772 
	C359.770508,189.734772 361.153442,189.734772 363.000488,189.734772 
	C363.000488,184.148911 362.979309,178.707932 363.006714,173.267212 
	C363.031769,168.295822 364.874420,164.699066 370.278900,163.846008 
	C370.513733,163.808945 370.691376,163.409637 371.022217,163.036179 
	C370.968170,161.879761 370.908356,160.600281 370.792145,158.114624 
	C367.279022,159.583160 364.403778,160.785034 360.975189,162.544220 
M285.000000,61.584301 
	C285.000000,68.650635 285.000000,75.716965 285.000000,83.086891 
	C287.011505,82.916374 288.394135,82.799164 289.696228,82.688774 
	C289.696228,72.938797 289.696228,63.577888 289.696228,53.930824 
	C287.984314,54.081642 286.600708,54.203533 285.000000,54.344555 
	C285.000000,56.673355 285.000000,58.642445 285.000000,61.584301 
M246.000153,58.687340 
	C246.000153,66.743988 246.000153,74.800636 246.000153,83.152100 
	C248.070923,82.926918 249.456085,82.776299 250.662201,82.645142 
	C250.662201,72.865685 250.662201,63.505848 250.662201,54.280075 
	C247.322174,53.463867 245.376617,54.047226 246.000153,58.687340 
M108.709984,119.952629 
	C111.249207,119.687309 114.203316,120.102768 116.172791,118.902550 
	C117.363106,118.177147 117.808540,114.681999 117.208519,112.894661 
	C116.030121,109.384445 113.314560,107.901360 109.513718,109.895142 
	C105.427147,112.038795 105.018639,114.407593 108.709984,119.952629 
M246.013702,48.558445 
	C246.853210,49.694916 247.692719,50.831387 248.532227,51.967861 
	C249.639008,51.102848 251.054108,50.421246 251.723434,49.296021 
	C252.061981,48.726898 250.967453,46.467537 250.666199,46.496269 
	C249.110901,46.644604 247.602615,47.286118 246.013702,48.558445 
M284.240448,48.576447 
	C285.608978,49.346680 286.937592,50.228806 288.395264,50.749401 
	C288.583252,50.816536 289.948181,48.957581 289.857086,48.086021 
	C289.746277,47.025761 288.670166,46.066383 288.011597,45.063370 
	C286.879547,46.016891 285.747528,46.970413 284.240448,48.576447 
z"/>
<path fill="#0A4595" opacity="1.000000" stroke="none" 
	d="
M76.053978,182.821655 
	C69.794815,198.854721 47.339252,201.702805 36.061523,189.586243 
	C28.702829,181.680206 27.864008,167.809158 34.362461,158.284729 
	C39.835415,150.263321 53.415691,146.847122 63.019169,150.439209 
	C75.987389,155.289841 81.430862,170.974274 76.053978,182.821655 
z"/>
<path fill="#0A4595" opacity="1.000000" stroke="none" 
	d="
M194.020538,62.758781 
	C189.335419,76.053352 182.603760,80.363876 167.713486,79.998444 
	C159.225189,79.790138 150.767715,72.890038 147.864990,63.804863 
	C144.388489,52.923851 148.646271,41.295303 158.305740,35.355591 
	C167.413406,29.755190 180.597443,31.565529 187.876160,39.221893 
	C194.304245,45.983498 196.394821,53.460194 194.020538,62.758781 
z"/>
<path fill="#0A4595" opacity="1.000000" stroke="none" 
	d="
M47.588070,32.057320 
	C54.543980,31.692694 60.807941,32.012424 66.544106,35.961094 
	C77.321754,43.380230 80.365898,58.261795 72.953804,69.099350 
	C67.042099,77.743118 58.538990,81.500397 48.485840,79.758553 
	C39.149143,78.140846 31.804007,72.577271 29.642458,62.933399 
	C26.875517,50.588520 29.864698,37.624374 47.588070,32.057320 
z"/>
<path fill="#0A4595" opacity="1.000000" stroke="none" 
	d="
M147.166992,179.004272 
	C147.102386,178.265732 147.037766,177.527206 147.126038,176.244873 
	C147.150101,175.117844 147.021301,174.534622 146.892487,173.951401 
	C145.858200,153.068329 168.565552,144.530334 182.331665,152.841751 
	C193.414948,159.533401 197.565201,169.828018 193.329681,182.062302 
	C189.284073,193.747910 176.810791,200.586273 164.288818,196.706253 
	C157.880142,191.910721 151.916885,187.663086 148.916946,180.546310 
	C148.644943,179.901062 147.764755,179.512192 147.166992,179.004272 
z"/>
<path fill="#0072BC" opacity="1.000000" stroke="none" 
	d="
M155.912537,129.368271 
	C146.402954,119.996422 145.470215,110.175552 153.106277,102.397087 
	C158.998047,96.395439 169.241745,95.587830 176.048233,100.588356 
	C182.786591,105.538834 184.955658,115.038673 181.089111,122.665764 
	C177.190704,130.355698 168.698074,133.827332 160.338486,131.127808 
	C158.938507,130.675720 157.567154,130.134964 155.912537,129.368271 
z"/>
<path fill="#0072BC" opacity="1.000000" stroke="none" 
	d="
M52.364517,98.038696 
	C61.877075,95.108284 69.330391,100.689842 72.613365,105.262589 
	C76.574379,110.779755 75.630196,120.314926 70.841110,126.445023 
	C66.986389,131.379120 57.677452,133.643723 50.928577,130.861526 
	C44.002708,128.006363 40.474922,122.045395 40.229267,115.034286 
	C40.014248,108.897499 42.346745,103.091141 48.472752,99.884193 
	C49.633877,99.276337 50.797962,98.674156 52.364517,98.038696 
z"/>
<path fill="#0072BC" opacity="1.000000" stroke="none" 
	d="
M123.592499,48.263783 
	C134.289749,59.270603 128.967300,75.383835 117.098900,78.499397 
	C107.846146,80.928329 98.820030,76.529877 95.833633,67.535110 
	C92.778862,58.334431 97.302780,47.944885 106.260468,45.521103 
	C111.951042,43.981339 118.063377,44.142906 123.592499,48.263783 
z"/>
<path fill="#0072BC" opacity="1.000000" stroke="none" 
	d="
M96.589134,175.027359 
	C93.160027,163.567505 95.733261,155.567993 104.132454,151.444519 
	C110.432922,148.351364 122.589622,148.901794 127.421928,157.925400 
	C131.525009,165.587311 128.503235,177.704453 121.167953,181.945679 
	C113.079620,186.622330 102.500900,183.996094 97.499077,176.076401 
	C97.323509,175.798416 97.075211,175.566360 96.589134,175.027359 
z"/>
<path fill="#009DDF" opacity="1.000000" stroke="none" 
	d="
M255.178986,75.465698 
	C250.984390,65.075020 254.397537,56.077965 263.409424,53.010914 
	C272.115906,50.047802 281.259857,54.372368 282.508026,63.438427 
	C283.548309,70.994476 282.902191,78.968529 281.777405,86.576241 
	C280.923950,92.348396 272.912476,96.269150 266.991791,94.929344 
	C259.874634,93.318779 255.168427,87.746964 256.338043,81.248688 
	C257.341339,81.101044 258.405426,80.944466 259.997650,80.710167 
	C258.246613,78.872749 256.790314,77.344597 255.178986,75.465698 
M258.052185,69.065742 
	C258.760071,70.531570 259.085419,72.650764 260.251740,73.333603 
	C263.089508,74.995064 266.346863,77.082504 269.381744,77.001236 
	C274.128967,76.874115 277.552734,73.695267 277.949799,68.530510 
	C278.282166,64.207832 277.014679,60.507046 272.782776,58.331425 
	C265.710480,54.695576 257.583832,60.760941 258.052185,69.065742 
M264.136383,88.617943 
	C267.954803,91.046165 271.889709,90.476692 274.990814,87.814308 
	C276.817932,86.245689 277.438049,83.271187 278.258850,81.618042 
	C272.164032,81.904022 266.771332,82.157059 260.721375,82.440926 
	C261.518280,84.003563 262.551086,86.028877 264.136383,88.617943 
z"/>
<path fill="#009DDF" opacity="1.000000" stroke="none" 
	d="
M87.583900,153.996765 
	C73.863235,155.547699 69.739807,143.074005 74.911118,134.494217 
	C77.552559,130.111755 81.808968,128.604538 86.578918,129.084442 
	C91.223152,129.551697 94.896088,132.009064 96.752281,136.487122 
	C98.609306,140.967178 98.915871,145.530380 95.171364,149.183334 
	C93.146492,151.158691 90.419441,152.414291 87.583900,153.996765 
z"/>
<path fill="#009DDF" opacity="1.000000" stroke="none" 
	d="
M145.114594,130.596893 
	C149.737320,133.563049 152.880814,139.082947 151.886505,143.056076 
	C150.649231,148.000092 148.165405,152.352982 142.933334,153.869751 
	C137.269119,155.511795 131.440140,153.257431 128.396744,148.867432 
	C126.087852,145.536926 126.526230,137.235794 129.208847,133.489151 
	C131.806488,129.861206 137.501083,128.290390 142.407867,129.817184 
	C143.189575,130.060410 144.014404,130.165085 145.114594,130.596893 
z"/>
<path fill="#009DDF" opacity="1.000000" stroke="none" 
	d="
M75.127670,80.383118 
	C81.892265,73.157295 88.773834,74.273117 93.627274,78.215004 
	C98.919708,82.513420 99.353401,89.583832 95.044907,95.773132 
	C92.428658,99.531464 85.298973,101.465782 80.317963,99.768623 
	C76.397377,98.432785 72.819786,93.537842 73.085289,89.087494 
	C73.254066,86.258308 74.247932,83.478348 75.127670,80.383118 
z"/>
<path fill="#009DDF" opacity="1.000000" stroke="none" 
	d="
M250.154968,183.645966 
	C245.003235,175.619995 246.801773,169.610779 250.352219,165.233749 
	C255.263458,159.179138 261.033417,157.654633 267.852234,160.030334 
	C273.969025,162.161469 277.219238,167.685852 276.819153,175.694397 
	C268.929688,175.694397 261.003754,175.694397 252.802277,175.694397 
	C252.533508,180.100906 255.020538,182.158173 258.162598,183.596176 
	C261.816559,185.268478 265.208710,185.213379 268.448822,182.189957 
	C270.260895,180.499039 272.752319,179.536148 275.880768,177.688065 
	C275.868561,184.745346 271.819672,187.269058 267.975739,188.772888 
	C261.291962,191.387711 255.140091,189.628342 250.154968,183.645966 
M269.038208,167.551880 
	C266.554840,164.956207 263.979248,163.367905 260.044250,164.847855 
	C256.928314,166.019745 254.093491,166.957306 253.670837,170.557831 
	C259.593689,170.557831 265.242065,170.557831 271.502563,170.557831 
	C270.571320,169.339752 270.093658,168.714951 269.038208,167.551880 
z"/>
<path fill="#009DDF" opacity="1.000000" stroke="none" 
	d="
M148.235001,78.766525 
	C153.785522,87.163727 152.105301,92.341110 147.532104,96.936867 
	C144.243973,100.241211 137.614029,101.222931 133.397095,99.133018 
	C128.199600,96.557144 125.941277,92.029015 127.086708,84.980667 
	C127.860352,80.220100 130.557663,77.179634 135.746262,75.780914 
	C140.658691,74.456635 144.173965,76.355324 148.235001,78.766525 
z"/>
<path fill="#0072BC" opacity="1.000000" stroke="none" 
	d="
M235.983398,126.974869 
	C240.692642,121.315758 238.353775,114.897621 239.073730,108.969246 
	C239.290604,107.183487 240.380554,105.503754 241.070541,103.775452 
	C241.700470,103.952919 242.330414,104.130394 242.960358,104.307869 
	C242.960358,115.067329 243.288300,125.840912 242.825531,136.580429 
	C242.584946,142.163757 236.837830,146.474670 230.687149,146.992615 
	C225.584793,147.422287 219.161697,143.659134 217.604797,139.003845 
	C217.112061,137.530548 217.527817,135.753433 217.527817,133.641968 
	C222.687332,136.937607 225.611694,144.496582 232.709869,141.406067 
	C235.644104,140.128510 237.425064,136.202103 240.578186,132.479721 
	C235.362640,133.135590 231.895050,133.401733 228.496048,134.035553 
	C222.044464,135.238586 216.338852,127.525436 216.091873,122.944176 
	C215.761383,116.813904 216.010101,110.652412 216.010101,104.325806 
	C219.510559,103.856903 220.874191,105.494797 220.966782,108.391998 
	C221.078491,111.887169 220.994659,115.388496 221.000961,118.887146 
	C221.018951,128.874527 227.049805,132.307236 235.983398,126.974869 
z"/>
<path fill="#009DDF" opacity="1.000000" stroke="none" 
	d="
M321.673401,187.812531 
	C317.419281,190.504501 313.560516,190.515121 309.477509,188.121994 
	C308.451294,187.520523 306.474274,187.834503 305.244568,188.401199 
	C297.047150,192.179001 290.048035,187.814148 290.005829,178.733246 
	C289.975769,172.260422 290.000000,165.787338 290.000000,159.209610 
	C293.832825,158.932419 295.024017,160.801605 295.006714,163.954178 
	C294.979248,168.946655 295.048920,173.940033 294.983948,178.931808 
	C294.939117,182.379135 296.285950,184.876434 299.900085,184.900955 
	C303.650909,184.926407 305.327301,182.827942 305.076752,178.817017 
	C304.757904,173.712112 304.999573,168.572189 304.999573,163.252075 
	C306.821136,163.252075 308.206207,163.252075 310.000061,163.252075 
	C310.000061,168.443069 310.132690,173.409180 309.955139,178.364197 
	C309.828949,181.885818 311.390106,184.162003 314.602966,184.912735 
	C318.462433,185.814575 320.180511,183.000076 320.460693,179.917725 
	C320.969269,174.322922 320.700806,168.660507 321.101715,163.050964 
	C321.211792,161.510666 322.546936,160.057922 323.319946,158.565002 
	C323.876953,158.777100 324.433960,158.989212 324.990967,159.201309 
	C324.990967,166.828415 325.183777,174.463882 324.852936,182.076614 
	C324.772034,183.937485 322.975464,185.723785 321.673401,187.812531 
z"/>
<path fill="#009DDF" opacity="1.000000" stroke="none" 
	d="
M320.182312,82.368759 
	C312.966522,83.432961 306.404175,80.525414 303.885895,75.552956 
	C300.696686,69.255623 301.441711,61.808693 305.766907,56.750751 
	C308.896851,53.090553 316.450104,51.297749 321.537231,53.007545 
	C327.236206,54.922981 331.734253,60.605526 331.959351,66.607063 
	C332.146057,71.585136 331.997559,76.575790 331.997559,80.680634 
	C327.852448,81.194954 324.178223,81.650848 320.182312,82.368759 
M326.665802,65.178070 
	C326.180969,64.335464 325.603760,63.532043 325.226898,62.643631 
	C323.326965,58.165184 319.307678,57.070942 315.270569,57.483864 
	C310.653076,57.956154 307.139801,62.611092 307.000916,66.995079 
	C306.836670,72.179047 311.384399,77.617355 316.164093,77.952744 
	C321.907379,78.355736 326.767883,72.931999 326.665802,65.178070 
z"/>
<path fill="#009DDF" opacity="1.000000" stroke="none" 
	d="
M341.113098,134.908112 
	C340.436829,129.737961 340.128601,124.636322 340.023102,119.530487 
	C339.897461,113.448700 336.252563,108.909676 331.368469,109.003517 
	C326.639862,109.094360 323.025635,113.523026 323.004028,119.294029 
	C322.985382,124.279243 323.000153,129.264587 323.000153,134.624893 
	C321.434113,134.782028 320.044983,134.921432 318.311768,135.095352 
	C318.311768,121.049126 318.311768,107.295898 318.310120,93.541550 
	C322.458557,93.159157 322.458557,93.159157 323.108215,105.117157 
	C327.558899,105.117157 332.112671,104.310219 336.229431,105.307465 
	C342.310394,106.780502 344.988220,111.409897 344.998413,117.814659 
	C345.005859,122.480011 344.847046,127.152191 345.055634,131.808182 
	C345.180115,134.587082 344.050354,135.368423 341.113098,134.908112 
z"/>
<path fill="#009DDF" opacity="1.000000" stroke="none" 
	d="
M344.440552,159.198730 
	C353.314331,162.279251 357.280884,167.652267 356.999542,175.830414 
	C356.789062,181.949005 351.593933,187.796753 344.666809,189.712387 
	C337.069153,191.813431 327.570343,184.428909 326.910095,176.562485 
	C325.983521,165.523651 332.882996,158.562454 344.440552,159.198730 
M346.995789,166.462341 
	C344.324738,163.981552 341.300812,163.692230 338.029999,165.044846 
	C334.338989,166.571228 330.579315,172.165771 331.098602,175.327972 
	C331.862213,179.977753 336.335052,184.892334 340.871063,184.774689 
	C344.903564,184.670090 348.876343,183.254456 350.680786,178.775589 
	C352.623932,173.952469 351.730591,170.240173 346.995789,166.462341 
z"/>
<path fill="#009DDF" opacity="1.000000" stroke="none" 
	d="
M384.735748,163.779022 
	C387.518188,161.716812 388.884003,157.195206 394.153931,160.227722 
	C391.200592,164.062714 388.396576,167.703842 385.272797,171.760208 
	C386.960205,174.415390 388.862762,177.367722 390.722382,180.346878 
	C392.583374,183.328247 394.401367,186.336456 396.494568,189.751083 
	C385.219177,191.322372 387.314423,179.689392 381.347015,176.546951 
	C375.609528,178.950638 377.215851,184.417679 376.931824,189.579437 
	C375.393951,189.579437 373.900574,189.579437 372.198669,189.579437 
	C372.198669,177.227386 372.198669,164.957825 372.198669,152.307373 
	C373.623047,152.198547 375.011536,152.092453 376.772552,151.957886 
	C376.772552,158.856506 376.772552,165.465363 376.772552,173.358627 
	C379.847778,169.639893 382.163666,166.839417 384.735748,163.779022 
z"/>
<path fill="#009DDF" opacity="1.000000" stroke="none" 
	d="
M264.648376,105.015503 
	C276.155121,109.350723 276.835114,125.323708 268.915649,131.614136 
	C261.410706,137.575333 248.863220,134.963516 245.660355,125.272118 
	C243.562057,118.923019 243.857819,113.244850 249.041489,108.457672 
	C253.442963,104.392868 258.449982,102.947685 264.648376,105.015503 
M256.591919,109.995880 
	C248.974518,113.167534 246.934280,119.071358 251.219955,125.540871 
	C253.615280,129.156784 260.014648,130.823349 263.809692,128.592773 
	C267.384827,126.491470 271.225281,121.393684 269.054199,116.462646 
	C266.873291,111.509285 262.077820,108.582253 256.591919,109.995880 
z"/>
<path fill="#009DDF" opacity="1.000000" stroke="none" 
	d="
M281.089722,124.144135 
	C287.485504,131.194458 291.583008,131.846085 295.795776,126.544556 
	C297.015900,125.009102 297.742737,122.759430 297.904083,120.772888 
	C298.226318,116.805351 297.672638,112.754097 298.143341,108.816628 
	C298.370453,106.916916 300.099792,105.196785 301.148926,103.395340 
	C301.751465,103.657043 302.354004,103.918747 302.956543,104.180450 
	C302.956543,110.748436 303.400238,117.355545 302.825684,123.872879 
	C302.301758,129.815689 294.418915,135.461212 288.528717,134.980865 
	C281.168365,134.380615 276.039581,129.001617 276.005737,121.795830 
	C275.978424,115.983612 276.000214,110.171173 276.000214,104.124222 
	C279.672150,104.575653 281.033447,106.512199 281.009583,109.749176 
	C280.975189,114.408035 281.015625,119.067459 281.089722,124.144135 
z"/>
<path fill="#0072BC" opacity="1.000000" stroke="none" 
	d="
M239.167175,54.003654 
	C239.639725,50.900566 236.711456,45.851162 244.414200,46.124611 
	C243.954514,54.949287 244.262009,63.616600 242.854309,71.995758 
	C241.430069,80.473396 232.889771,83.439392 227.838043,82.787926 
	C218.842438,81.627861 214.302368,76.320068 214.417542,67.343552 
	C215.880737,65.876129 216.962402,64.881683 218.375992,64.121490 
	C218.802811,65.008751 219.027817,65.673096 218.972015,66.312965 
	C218.526199,71.425049 221.054550,74.752457 225.363388,76.966263 
	C229.125488,78.899162 232.622910,77.362289 235.248962,75.020607 
	C238.749496,71.899132 240.193466,67.728256 238.226166,62.923248 
	C240.361603,59.981960 242.771957,57.194946 239.167175,54.003654 
z"/>
<path fill="#00BDF2" opacity="1.000000" stroke="none" 
	d="
M83.002121,113.362579 
	C84.441879,108.690735 87.376358,106.094635 91.898132,106.535934 
	C97.005699,107.034401 99.916656,110.246819 99.982285,114.649361 
	C100.052841,119.381508 97.579643,122.192818 93.098396,123.454224 
	C87.811165,124.942505 83.028450,120.386833 83.002121,113.362579 
z"/>
<path fill="#00BDF2" opacity="1.000000" stroke="none" 
	d="
M116.535736,142.955109 
	C111.530853,145.213760 107.465530,144.316299 104.657875,140.042740 
	C102.548149,136.831543 102.671288,133.349396 105.259094,130.262894 
	C108.714951,126.141106 113.889145,125.775185 117.806572,129.314301 
	C122.007431,133.109482 121.674957,137.737396 116.535736,142.955109 
z"/>
<path fill="#00BDF2" opacity="1.000000" stroke="none" 
	d="
M110.392014,86.020706 
	C116.488182,86.190201 120.121323,88.649963 120.710808,93.497253 
	C121.179657,97.352577 119.254555,100.324196 115.636047,102.115440 
	C111.622032,104.102455 108.302658,102.998169 105.463516,99.946175 
	C101.384087,95.560944 103.395233,89.488792 110.392014,86.020706 
z"/>
<path fill="#00BDF2" opacity="1.000000" stroke="none" 
	d="
M137.566940,108.077797 
	C142.411407,113.701866 142.332779,118.063721 137.638290,121.845978 
	C133.863358,124.887367 127.749611,124.211510 125.565918,119.779312 
	C124.377426,117.367050 124.460732,113.842697 125.151985,111.119896 
	C125.915192,108.113701 128.580383,106.415695 132.065735,106.997162 
	C133.791916,107.285141 135.523209,107.542313 137.566940,108.077797 
z"/>
<path fill="#009DDF" opacity="1.000000" stroke="none" 
	d="
M310.017883,124.363228 
	C311.574677,126.538483 313.271912,128.167633 314.607056,130.053207 
	C315.483032,131.290375 315.835663,132.898102 316.474518,134.467117 
	C308.996063,135.318756 305.328918,132.111069 305.071869,124.564873 
	C304.777985,115.936256 305.003815,107.289940 305.003815,98.483955 
	C310.091919,96.941780 310.052795,100.346588 310.114441,103.739029 
	C312.017365,103.904129 313.773712,104.056511 315.750549,104.228027 
	C315.750549,105.785301 315.750549,107.179474 315.750549,108.775795 
	C313.934326,108.910507 312.308502,109.031090 310.004608,109.201973 
	C310.004608,114.066345 310.004608,118.996185 310.017883,124.363228 
z"/>
<path fill="#009DDF" opacity="1.000000" stroke="none" 
	d="
M282.958557,155.308960 
	C282.343903,160.621918 286.301697,158.397430 288.695953,159.350098 
	C288.796967,160.559143 288.914062,161.960999 289.054810,163.645828 
	C287.033905,163.863617 285.280029,164.052643 283.012817,164.296982 
	C283.012817,169.599380 282.750397,174.907013 283.170380,180.160095 
	C283.298828,181.766953 285.265137,183.252396 286.455109,184.741226 
	C287.502716,186.051880 288.641571,187.289612 290.212860,189.106049 
	C282.523560,190.575211 278.538635,187.619461 278.134979,180.285416 
	C277.642517,171.337982 278.017822,162.342773 278.017822,152.057846 
	C280.212036,153.315903 281.569763,154.094360 282.958557,155.308960 
z"/>
<path fill="#0072BC" opacity="1.000000" stroke="none" 
	d="
M221.625504,160.292786 
	C223.704788,160.224655 225.939926,160.631302 227.837128,160.008499 
	C237.456329,156.850647 245.973099,162.773239 245.997238,172.862442 
	C246.010315,178.332855 245.999573,183.803329 245.999573,189.653656 
	C244.340363,189.765427 242.965866,189.858002 241.587219,189.950867 
	C241.340134,189.181702 241.068558,188.723770 241.064285,188.263367 
	C241.018204,183.273117 241.089966,178.280792 240.980042,173.292343 
	C240.829224,166.446365 235.311417,162.719788 228.209167,164.837189 
	C225.394928,165.459625 223.197464,166.229813 221.086426,166.551346 
	C221.323730,164.166061 221.474625,162.229416 221.625504,160.292786 
z"/>
<path fill="#009DDF" opacity="1.000000" stroke="none" 
	d="
M332.999695,70.722839 
	C332.999695,61.294743 332.999695,52.336300 332.999695,43.419979 
	C337.026978,42.299000 338.084259,43.963123 338.035645,47.370136 
	C337.921753,55.354370 337.746155,63.354652 338.163879,71.318626 
	C338.280090,73.534088 340.296906,75.699463 341.604889,77.785530 
	C342.488556,79.194870 343.657837,80.425133 345.121246,82.266266 
	C336.731018,83.497223 333.609955,80.200645 332.999695,70.722839 
z"/>
<path fill="#009DDF" opacity="1.000000" stroke="none" 
	d="
M293.000000,57.032646 
	C293.000000,53.094246 293.000000,49.649906 293.000000,46.205563 
	C293.564789,45.982620 294.129578,45.759678 294.694366,45.536736 
	C295.762970,47.416073 296.831604,49.295414 298.285492,51.852341 
	C298.922363,51.895985 300.544006,52.007111 302.578339,52.146519 
	C302.578339,53.605885 302.578339,55.100384 302.578339,56.817673 
	C300.897003,56.927307 299.270813,57.033348 297.021973,57.179985 
	C297.021973,62.258709 296.730804,67.388130 297.175812,72.452866 
	C297.337158,74.288780 298.944061,77.076378 300.439575,77.501595 
	C304.035919,78.524147 302.897583,80.567749 302.743744,82.696182 
	C295.706787,82.742729 293.047333,80.329300 293.007233,73.995300 
	C292.972473,68.505974 293.000000,63.016251 293.000000,57.032646 
z"/>
<path fill="#009DDF" opacity="1.000000" stroke="none" 
	d="
M361.251892,162.265564 
	C364.403778,160.785034 367.279022,159.583160 370.792145,158.114624 
	C370.908356,160.600281 370.968170,161.879761 371.022217,163.036179 
	C370.691376,163.409637 370.513733,163.808945 370.278900,163.846008 
	C364.874420,164.699066 363.031769,168.295822 363.006714,173.267212 
	C362.979309,178.707932 363.000488,184.148911 363.000488,189.734772 
	C361.153442,189.734772 359.770508,189.734772 357.802155,189.734772 
	C359.150238,180.492020 355.457428,171.076111 361.251892,162.265564 
z"/>
<path fill="#0072BC" opacity="1.000000" stroke="none" 
	d="
M218.044067,63.887234 
	C216.962402,64.881683 215.880737,65.876129 214.483124,66.934967 
	C215.456818,56.379086 222.310257,51.494781 232.535889,53.811424 
	C234.560226,54.270042 236.665878,54.369614 238.950607,54.319210 
	C242.771957,57.194946 240.361603,59.981960 237.930481,62.746742 
	C232.193802,53.791962 222.527390,56.921677 218.044067,63.887234 
z"/>
<path fill="#009DDF" opacity="1.000000" stroke="none" 
	d="
M285.000000,61.097916 
	C285.000000,58.642445 285.000000,56.673355 285.000000,54.344555 
	C286.600708,54.203533 287.984314,54.081642 289.696228,53.930824 
	C289.696228,63.577888 289.696228,72.938797 289.696228,82.688774 
	C288.394135,82.799164 287.011505,82.916374 285.000000,83.086891 
	C285.000000,75.716965 285.000000,68.650635 285.000000,61.097916 
z"/>
<path fill="#009DDF" opacity="1.000000" stroke="none" 
	d="
M246.000305,58.211384 
	C245.376617,54.047226 247.322174,53.463867 250.662201,54.280075 
	C250.662201,63.505848 250.662201,72.865685 250.662201,82.645142 
	C249.456085,82.776299 248.070923,82.926918 246.000153,83.152100 
	C246.000153,74.800636 246.000153,66.743988 246.000305,58.211384 
z"/>
<path fill="#6CCFF6" opacity="1.000000" stroke="none" 
	d="
M108.374863,119.740089 
	C105.018639,114.407593 105.427147,112.038795 109.513718,109.895142 
	C113.314560,107.901360 116.030121,109.384445 117.208519,112.894661 
	C117.808540,114.681999 117.363106,118.177147 116.172791,118.902550 
	C114.203316,120.102768 111.249207,119.687309 108.374863,119.740089 
z"/>
<path fill="#0072BC" opacity="1.000000" stroke="none" 
	d="
M221.299515,160.204437 
	C221.474625,162.229416 221.323730,164.166061 221.086426,167.011093 
	C221.333328,173.612991 221.666672,179.306503 222.000000,185.403046 
	C221.999802,187.148941 221.999603,188.491806 221.999405,189.834671 
	C221.004669,189.194122 219.159149,188.572769 219.144196,187.910110 
	C218.954056,179.484070 218.971817,171.051147 219.117325,162.623093 
	C219.131927,161.776978 220.326538,160.951248 221.299515,160.204437 
z"/>
<path fill="#0072BC" opacity="1.000000" stroke="none" 
	d="
M222.000000,185.000000 
	C221.666672,179.306503 221.333328,173.612991 221.000000,167.459747 
	C223.197464,166.229813 225.394928,165.459625 227.820984,164.898026 
	C223.264023,168.975708 223.874649,174.346939 223.990524,179.594940 
	C224.037933,181.741684 223.977448,183.890793 223.706512,186.311874 
	C222.964661,186.056610 222.482330,185.528305 222.000000,185.000000 
z"/>
<path fill="#094595" opacity="1.000000" stroke="none" 
	d="
M147.130768,179.375244 
	C147.764755,179.512192 148.644943,179.901062 148.916946,180.546310 
	C151.916885,187.663086 157.880142,191.910721 163.920029,196.502869 
	C154.909439,194.553848 149.492310,188.643402 147.130768,179.375244 
z"/>
<path fill="#009DDF" opacity="1.000000" stroke="none" 
	d="
M246.045822,48.157013 
	C247.602615,47.286118 249.110901,46.644604 250.666199,46.496269 
	C250.967453,46.467537 252.061981,48.726898 251.723434,49.296021 
	C251.054108,50.421246 249.639008,51.102848 248.532227,51.967857 
	C247.692719,50.831387 246.853210,49.694916 246.045822,48.157013 
z"/>
<path fill="#009DDF" opacity="1.000000" stroke="none" 
	d="
M284.427979,48.250191 
	C285.747528,46.970413 286.879547,46.016891 288.011597,45.063370 
	C288.670166,46.066383 289.746277,47.025761 289.857086,48.086021 
	C289.948181,48.957581 288.583252,50.816536 288.395264,50.749401 
	C286.937592,50.228806 285.608978,49.346680 284.427979,48.250191 
z"/>
<path fill="#0072BC" opacity="1.000000" stroke="none" 
	d="
M222.000000,185.403046 
	C222.482330,185.528305 222.964661,186.056610 223.640549,186.772903 
	C223.468872,187.950150 223.103607,188.939423 222.368866,189.881683 
	C221.999603,188.491806 221.999802,187.148941 222.000000,185.403046 
z"/>
<path fill="#094595" opacity="1.000000" stroke="none" 
	d="
M146.653900,174.093384 
	C147.021301,174.534622 147.150101,175.117844 147.086945,175.875717 
	C146.735107,175.445358 146.575195,174.840363 146.653900,174.093384 
z"/>
<path fill="#000000" opacity="1.000000" stroke="none" 
	d="
M258.030273,68.664062 
	C257.583832,60.760941 265.710480,54.695576 272.782776,58.331425 
	C277.014679,60.507046 278.282166,64.207832 277.949799,68.530510 
	C277.552734,73.695267 274.128967,76.874115 269.381744,77.001236 
	C266.346863,77.082504 263.089508,74.995064 260.251740,73.333603 
	C259.085419,72.650764 258.760071,70.531570 258.030273,68.664062 
z"/>
<path fill="#000000" opacity="1.000000" stroke="none" 
	d="
M263.860168,88.336067 
	C262.551086,86.028877 261.518280,84.003563 260.721375,82.440926 
	C266.771332,82.157059 272.164032,81.904022 278.258850,81.618042 
	C277.438049,83.271187 276.817932,86.245689 274.990814,87.814308 
	C271.889709,90.476692 267.954803,91.046165 263.860168,88.336067 
z"/>
<path fill="#000000" opacity="1.000000" stroke="none" 
	d="
M269.327087,167.821014 
	C270.093658,168.714951 270.571320,169.339752 271.502563,170.557831 
	C265.242065,170.557831 259.593689,170.557831 253.670837,170.557831 
	C254.093491,166.957306 256.928314,166.019745 260.044250,164.847855 
	C263.979248,163.367905 266.554840,164.956207 269.327087,167.821014 
z"/>
<path fill="#000000" opacity="1.000000" stroke="none" 
	d="
M326.806366,65.549240 
	C326.767883,72.931999 321.907379,78.355736 316.164093,77.952744 
	C311.384399,77.617355 306.836670,72.179047 307.000916,66.995079 
	C307.139801,62.611092 310.653076,57.956154 315.270569,57.483864 
	C319.307678,57.070942 323.326965,58.165184 325.226898,62.643631 
	C325.603760,63.532043 326.180969,64.335464 326.806366,65.549240 
z"/>
<path fill="#000000" opacity="1.000000" stroke="none" 
	d="
M347.305786,166.693344 
	C351.730591,170.240173 352.623932,173.952469 350.680786,178.775589 
	C348.876343,183.254456 344.903564,184.670090 340.871063,184.774689 
	C336.335052,184.892334 331.862213,179.977753 331.098602,175.327972 
	C330.579315,172.165771 334.338989,166.571228 338.029999,165.044846 
	C341.300812,163.692230 344.324738,163.981552 347.305786,166.693344 
z"/>
<path fill="#000000" opacity="1.000000" stroke="none" 
	d="
M256.983582,109.955078 
	C262.077820,108.582253 266.873291,111.509285 269.054199,116.462646 
	C271.225281,121.393684 267.384827,126.491470 263.809692,128.592773 
	C260.014648,130.823349 253.615280,129.156784 251.219955,125.540871 
	C246.934280,119.071358 248.974518,113.167534 256.983582,109.955078 
z"/>
<path fill="#000000" opacity="1.000000" stroke="none" 
	d="
M218.375992,64.121490 
	C222.527390,56.921677 232.193802,53.791962 237.581421,62.859077 
	C240.193466,67.728256 238.749496,71.899132 235.248962,75.020607 
	C232.622910,77.362289 229.125488,78.899162 225.363388,76.966263 
	C221.054550,74.752457 218.526199,71.425049 218.972015,66.312965 
	C219.027817,65.673096 218.802811,65.008751 218.375992,64.121490 
z"/>
</svg>